{"title":"Newton 2017 Hindi 1080p BluRay x264 DTS [MW]","magnet":"magnet:?xt=urn:btih:2d0386541e77507c1b51ca14799a4dd702ccad0d&dn=Newton+2017+Hindi+1080p+BluRay+x264+DTS+%5BMW%5D&tr=udp%3A%2F%2Ftracker.leechers-paradise.org%3A6969&tr=udp%3A%2F%2Fzer0day.ch%3A1337&tr=udp%3A%2F%2Fopen.demonii.com%3A1337&tr=udp%3A%2F%2Ftracker.coppersurfer.tk%3A6969&tr=udp%3A%2F%2Fexodus.desync.com%3A6969","uploader":"MFreaky","categoryP":"video","categoryS":"hd___movies","size":"2473849931","seeders":"13","leechers":"23","description":" <a href=\"https://pichub.site/image/DFMUt\" rel=\"nofollow\" target=\"_NEW\">https://pichub.site/image/DFMUt</a> <a href=\"\nhttps://pichub.site/image/DFJV6\" rel=\"nofollow\" target=\"_NEW\">\nhttps://pichub.site/image/DFJV6</a> <a href=\"\nhttps://pichub.site/image/DFY94\" rel=\"nofollow\" target=\"_NEW\">\nhttps://pichub.site/image/DFY94</a> <a href=\"\nhttps://pichub.site/image/DFOKy\" rel=\"nofollow\" target=\"_NEW\">\nhttps://pichub.site/image/DFOKy</a> <a href=\"\nhttps://pichub.site/image/DFIRp\" rel=\"nofollow\" target=\"_NEW\">\nhttps://pichub.site/image/DFIRp</a>\r\n\r\nIMDB  <a href=\"\nhttps://www.imdb.com/title/tt6484982/\" rel=\"nofollow\" target=\"_NEW\">\nhttps://www.imdb.com/title/tt6484982/</a>\r\n\r\nVideo\r\nID                                       : 1\r\nFormat                                   : AVC\r\nFormat/Info                              : Advanced Video Codec\r\nFormat profile                           : High@L4.1\r\nFormat settings                          : CABAC / 4 Ref Frames\r\nFormat settings, CABAC                   : Yes\r\nFormat settings, RefFrames               : 4 frames\r\nCodec ID                                 : V_MPEG4/ISO/AVC\r\nDuration                                 : 1 h 44 min\r\nBit rate                                 : 2 400 kb/s\r\nWidth                                    : 1 920 pixels\r\nHeight                                   : 804 pixels\r\nDisplay aspect ratio                     : 2.40:1\r\nFrame rate mode                          : Constant\r\nFrame rate                               : 24.000 FPS\r\nColor space                              : YUV\r\nChroma subsampling                       : 4:2:0\r\nBit depth                                : 8 bits\r\nScan type                                : Progressive\r\nBits/(Pixel*Frame)                       : 0.065\r\nStream size                              : 1.74 GiB (75%)\r\nWriting library                          : x264 core 155 r2901 7d0ff22\r\nDefault                                  : Yes\r\nForced                                   : No\r\n\r\nAudio\r\nID                                       : 2\r\nFormat                                   : DTS\r\nFormat/Info                              : Digital Theater Systems\r\nCodec ID                                 : A_DTS\r\nDuration                                 : 1 h 44 min\r\nBit rate mode                            : Constant\r\nBit rate                                 : 756 kb/s\r\nChannel(s)                               : 6 channels\r\nChannel positions                        : Front: L C R, Side: L R, LFE\r\nSampling rate                            : 48.0 kHz\r\nFrame rate                               : 93.750 FPS (512 SPF)\r\nBit depth                                : 16 bits\r\nCompression mode                         : Lossy\r\nStream size                              : 566 MiB (24%)\r\nLanguage                                 : Hindi\r\nDefault                                  : Yes\r\nForced                                   : No","last_updated":"2018-09-11T12:12:23.524Z","parsed":{"xt":"urn:btih:2d0386541e77507c1b51ca14799a4dd702ccad0d","dn":"Newton 2017 Hindi 1080p BluRay x264 DTS [MW]","tr":["udp://exodus.desync.com:6969","udp://open.demonii.com:1337","udp://tracker.coppersurfer.tk:6969","udp://tracker.leechers-paradise.org:6969","udp://zer0day.ch:1337"],"infoHash":"2d0386541e77507c1b51ca14799a4dd702ccad0d","infoHashBuffer":{"type":"Buffer","data":[45,3,134,84,30,119,80,124,27,81,202,20,121,154,77,215,2,204,173,13]},"name":"Newton 2017 Hindi 1080p BluRay x264 DTS [MW]","announce":["udp://exodus.desync.com:6969","udp://open.demonii.com:1337","udp://tracker.coppersurfer.tk:6969","udp://tracker.leechers-paradise.org:6969","udp://zer0day.ch:1337"],"urlList":[]}}